# xmcd
#
# Track frame offsets: 
#        150
#        12118
#        25720
#        33984
#        49146
#        65001
#        78688
#        92897
#        105113
#        120497
#        135761
#        160069
#        176496
#        190599
#        204749
#        223602
#        240274
#        265401
#
# Disc length: 3770 seconds
#
# Revision: 1
# Processed by: cddbd v1.5.2PL0 Copyright (c) Steve Scherf et al.
# Submitted via: ExactAudioCopy v0.95b3
#
DISCID=e20eb812
DTITLE=Louis Armstrong - Ella and Louis - CD2
DYEAR=2000
DGENRE=Jazz
TTITLE0=Jeepers Creepers
TTITLE1=A Kiss To Build A Dream On (Live)
TTITLE2=When The Saints Go Marchin' In  (Live)
TTITLE3=Mack The Knife (Live)
TTITLE4=C'est Si Bon (Live)
TTITLE5=St. Louis Blues
TTITLE6=Black And Blue (Live)
TTITLE7=Dipper Mouth Blues
TTITLE8=Bye And Bye
TTITLE9=Rockin' Chair (Live)
TTITLE10=C.Jam Blues (Live)
TTITLE11=Stardust (Live)
TTITLE12=Royal Garden Blues (Live)
TTITLE13=I Used to Love You (Live)
TTITLE14=Where Did You Stay Last Night? (Live)
TTITLE15=If I Could Be With You (Tonight)
TTITLE16=Way Down Yonder In New Orleans (Live)
TTITLE17=La Vie En Rose (Live)
EXTD=ID3G: 0
EXTT0=
EXTT1=
EXTT2=
EXTT3=
EXTT4=
EXTT5=
EXTT6=
EXTT7=
EXTT8=
EXTT9=
EXTT10=
EXTT11=
EXTT12=
EXTT13=
EXTT14=
EXTT15=
EXTT16=
EXTT17=
PLAYORDER=
